<?xml version="1.0" encoding="UTF-8"?> <svg xmlns="http://www.w3.org/2000/svg" xmlns:xlink="http://www.w3.org/1999/xlink" width="240px" height="320px" viewBox="0 0 240 320" version="1.1"><title>Artboard</title><defs><polygon id="path-1" points="0 282.765 206.88 282.765 206.88 0 0 0"></polygon></defs><g id="Artboard" stroke="none" stroke-width="1" fill="none" fill-rule="evenodd"><g id="Group-57" transform="translate(17.000000, 19.000000)"><polygon id="Fill-1" fill="#231F20" points="11.9985 224.5091 11.9985 232.5741 11.1575 232.5741 11.1575 228.8531 6.1105 228.8531 6.1105 232.5741 5.2575 232.5741 5.2575 224.5091 6.1105 224.5091 6.1105 228.1041 11.1575 228.1041 11.1575 224.5091"></polygon><path d="M22.8301,229.7289 L20.8941,225.3959 L18.9581,229.7289 L22.8301,229.7289 Z M23.1411,230.4199 L18.6471,230.4199 L17.6791,232.5749 L16.7921,232.5749 L20.4791,224.5089 L21.3201,224.5089 L25.0081,232.5749 L24.1091,232.5749 L23.1411,230.4199 Z" id="Fill-2" fill="#231F20"></path><polygon id="Fill-3" fill="#231F20" points="36.5415 224.5091 36.5415 232.5741 35.8385 232.5741 30.6535 226.0301 30.6535 232.5741 29.8005 232.5741 29.8005 224.5091 30.5035 224.5091 35.7005 231.0541 35.7005 224.5091"></polygon><g id="Group-56"><path d="M45.8633,231.8373 C46.5703,231.8373 47.1883,231.6963 47.7183,231.4163 C48.2483,231.1363 48.6593,230.7483 48.9513,230.2523 C49.2433,229.7573 49.3893,229.1873 49.3893,228.5413 C49.3893,227.8973 49.2433,227.3253 48.9513,226.8303 C48.6593,226.3353 48.2483,225.9473 47.7183,225.6663 C47.1883,225.3863 46.5703,225.2463 45.8633,225.2463 L43.4783,225.2463 L43.4783,231.8373 L45.8633,231.8373 Z M42.6253,224.5093 L45.9093,224.5093 C46.7623,224.5093 47.5153,224.6803 48.1683,225.0223 C48.8213,225.3633 49.3273,225.8393 49.6893,226.4503 C50.0503,227.0613 50.2303,227.7583 50.2303,228.5413 C50.2303,229.3253 50.0503,230.0223 49.6893,230.6333 C49.3273,231.2433 48.8213,231.7203 48.1683,232.0623 C47.5153,232.4033 46.7623,232.5743 45.9093,232.5743 L42.6253,232.5743 L42.6253,224.5093 Z" id="Fill-4" fill="#231F20"></path><polygon id="Fill-6" fill="#231F20" points="63.9771 224.5091 63.9771 232.5741 63.1591 232.5741 63.1591 226.1211 59.9901 231.5491 59.5871 231.5491 56.4181 226.1561 56.4181 232.5741 55.6001 232.5741 55.6001 224.5091 56.3031 224.5091 59.8061 230.4881 63.2741 224.5091"></polygon><path d="M74.8081,229.7289 L72.8721,225.3959 L70.9361,229.7289 L74.8081,229.7289 Z M75.1191,230.4199 L70.6251,230.4199 L69.6571,232.5749 L68.7701,232.5749 L72.4571,224.5089 L73.2981,224.5089 L76.9861,232.5749 L76.0871,232.5749 L75.1191,230.4199 Z" id="Fill-8" fill="#231F20"></path><path d="M85.0171,231.8373 C85.7241,231.8373 86.3421,231.6963 86.8721,231.4163 C87.4021,231.1363 87.8131,230.7483 88.1051,230.2523 C88.3971,229.7573 88.5431,229.1873 88.5431,228.5413 C88.5431,227.8973 88.3971,227.3253 88.1051,226.8303 C87.8131,226.3353 87.4021,225.9473 86.8721,225.6663 C86.3421,225.3863 85.7241,225.2463 85.0171,225.2463 L82.6321,225.2463 L82.6321,231.8373 L85.0171,231.8373 Z M81.7791,224.5093 L85.0631,224.5093 C85.9161,224.5093 86.6691,224.6803 87.3221,225.0223 C87.9751,225.3633 88.4811,225.8393 88.8431,226.4503 C89.2041,227.0613 89.3841,227.7583 89.3841,228.5413 C89.3841,229.3253 89.2041,230.0223 88.8431,230.6333 C88.4811,231.2433 87.9751,231.7203 87.3221,232.0623 C86.6691,232.4033 85.9161,232.5743 85.0631,232.5743 L81.7791,232.5743 L81.7791,224.5093 Z" id="Fill-10" fill="#231F20"></path><polygon id="Fill-12" fill="#231F20" points="100.457 231.8373 100.457 232.5743 94.754 232.5743 94.754 224.5093 100.285 224.5093 100.285 225.2463 95.607 225.2463 95.607 228.1153 99.777 228.1153 99.777 228.8413 95.607 228.8413 95.607 231.8373"></polygon><path d="M113.7363,232.1136 C113.0953,231.7596 112.5913,231.2706 112.2273,230.6446 C111.8633,230.0186 111.6793,229.3176 111.6793,228.5416 C111.6793,227.7656 111.8633,227.0646 112.2273,226.4386 C112.5913,225.8126 113.0973,225.3226 113.7423,224.9696 C114.3883,224.6166 115.1093,224.4396 115.9093,224.4396 C116.5073,224.4396 117.0613,224.5396 117.5683,224.7396 C118.0753,224.9386 118.5063,225.2306 118.8593,225.6146 L118.3173,226.1566 C117.6873,225.5186 116.8923,225.1996 115.9313,225.1996 C115.2953,225.1996 114.7153,225.3456 114.1923,225.6376 C113.6703,225.9296 113.2603,226.3296 112.9653,226.8366 C112.6703,227.3426 112.5213,227.9116 112.5213,228.5416 C112.5213,229.1716 112.6703,229.7396 112.9653,230.2476 C113.2603,230.7546 113.6703,231.1536 114.1923,231.4456 C114.7153,231.7376 115.2953,231.8836 115.9313,231.8836 C116.9003,231.8836 117.6953,231.5606 118.3173,230.9156 L118.8593,231.4566 C118.5063,231.8416 118.0733,232.1346 117.5623,232.3386 C117.0513,232.5426 116.4963,232.6436 115.8973,232.6436 C115.0983,232.6436 114.3793,232.4676 113.7363,232.1136" id="Fill-14" fill="#231F20"></path><polygon id="Fill-16" fill="#231F20" points="129.8398 231.8373 129.8398 232.5743 124.1368 232.5743 124.1368 224.5093 129.6668 224.5093 129.6668 225.2463 124.9888 225.2463 124.9888 228.1153 129.1598 228.1153 129.1598 228.8413 124.9888 228.8413 124.9888 231.8373"></polygon><path d="M140.1299,228.7601 C140.5529,228.4071 140.7639,227.9111 140.7639,227.2741 C140.7639,226.6211 140.5529,226.1201 140.1299,225.7711 C139.7069,225.4211 139.0969,225.2461 138.2979,225.2461 L136.1539,225.2461 L136.1539,229.2901 L138.2979,229.2901 C139.0969,229.2901 139.7069,229.1141 140.1299,228.7601 L140.1299,228.7601 Z M140.8099,232.5741 L138.9669,229.9821 C138.7589,230.0051 138.5429,230.0171 138.3199,230.0171 L136.1539,230.0171 L136.1539,232.5741 L135.3019,232.5741 L135.3019,224.5091 L138.3199,224.5091 C139.3499,224.5091 140.1559,224.7541 140.7399,225.2461 C141.3239,225.7381 141.6159,226.4131 141.6159,227.2741 C141.6159,227.9041 141.4569,228.4361 141.1389,228.8701 C140.8189,229.3041 140.3639,229.6171 139.7729,229.8091 L141.7429,232.5741 L140.8099,232.5741 Z" id="Fill-18" fill="#231F20"></path><path d="M151.8369,229.7289 L149.8999,225.3959 L147.9649,229.7289 L151.8369,229.7289 Z M152.1489,230.4199 L147.6539,230.4199 L146.6859,232.5749 L145.7989,232.5749 L149.4859,224.5089 L150.3269,224.5089 L154.0149,232.5749 L153.1149,232.5749 L152.1489,230.4199 Z" id="Fill-20" fill="#231F20"></path><polygon id="Fill-22" fill="#231F20" points="167.1846 224.5091 167.1846 232.5741 166.3676 232.5741 166.3676 226.1211 163.1976 231.5491 162.7946 231.5491 159.6256 226.1561 159.6256 232.5741 158.8076 232.5741 158.8076 224.5091 159.5106 224.5091 163.0136 230.4881 166.4826 224.5091"></polygon><mask id="mask-2" fill="white"><use xlink:href="#path-1"></use></mask><g id="Clip-25"></g><polygon id="Fill-24" fill="#231F20" mask="url(#mask-2)" points="173.269 232.574 174.122 232.574 174.122 224.509 173.269 224.509"></polygon><path d="M181.5479,232.1136 C180.9059,231.7596 180.4029,231.2706 180.0379,230.6446 C179.6729,230.0186 179.4909,229.3176 179.4909,228.5416 C179.4909,227.7656 179.6729,227.0646 180.0379,226.4386 C180.4029,225.8126 180.9079,225.3226 181.5539,224.9696 C182.1979,224.6166 182.9209,224.4396 183.7199,224.4396 C184.3189,224.4396 184.8719,224.5396 185.3789,224.7396 C185.8859,224.9386 186.3169,225.2306 186.6689,225.6146 L186.1279,226.1566 C185.4979,225.5186 184.7029,225.1996 183.7419,225.1996 C183.1049,225.1996 182.5259,225.3456 182.0029,225.6376 C181.4809,225.9296 181.0709,226.3296 180.7759,226.8366 C180.4799,227.3426 180.3319,227.9116 180.3319,228.5416 C180.3319,229.1716 180.4799,229.7396 180.7759,230.2476 C181.0709,230.7546 181.4809,231.1536 182.0029,231.4456 C182.5259,231.7376 183.1049,231.8836 183.7419,231.8836 C184.7109,231.8836 185.5059,231.5606 186.1279,230.9156 L186.6689,231.4566 C186.3169,231.8416 185.8839,232.1346 185.3729,232.3386 C184.8619,232.5426 184.3079,232.6436 183.7079,232.6436 C182.9089,232.6436 182.1889,232.4676 181.5479,232.1136" id="Fill-26" fill="#231F20" mask="url(#mask-2)"></path><path d="M192.4014,232.3558 C191.8524,232.1638 191.4274,231.9108 191.1294,231.5948 L191.4634,230.9388 C191.7554,231.2308 192.1424,231.4658 192.6264,231.6468 C193.1104,231.8278 193.6094,231.9178 194.1244,231.9178 C194.8464,231.9178 195.3874,231.7858 195.7494,231.5198 C196.1104,231.2548 196.2914,230.9118 196.2914,230.4888 C196.2914,230.1668 196.1924,229.9098 195.9974,229.7168 C195.8004,229.5248 195.5604,229.3768 195.2764,229.2738 C194.9924,229.1688 194.5964,229.0558 194.0894,228.9328 C193.4824,228.7798 192.9994,228.6318 192.6374,228.4898 C192.2764,228.3478 191.9674,228.1308 191.7104,227.8388 C191.4534,227.5468 191.3244,227.1518 191.3244,226.6518 C191.3244,226.2448 191.4314,225.8748 191.6474,225.5408 C191.8624,225.2058 192.1924,224.9388 192.6374,224.7398 C193.0834,224.5398 193.6364,224.4398 194.2974,224.4398 C194.7574,224.4398 195.2094,224.5028 195.6514,224.6288 C196.0924,224.7558 196.4744,224.9308 196.7974,225.1538 L196.5094,225.8338 C196.1724,225.6108 195.8104,225.4438 195.4264,225.3328 C195.0424,225.2208 194.6664,225.1658 194.2974,225.1658 C193.5904,225.1658 193.0584,225.3018 192.7014,225.5748 C192.3434,225.8468 192.1654,226.1988 192.1654,226.6288 C192.1654,226.9518 192.2634,227.2098 192.4594,227.4068 C192.6554,227.6028 192.9014,227.7518 193.1974,227.8558 C193.4924,227.9598 193.8894,228.0738 194.3894,228.1958 C194.9804,228.3418 195.4594,228.4858 195.8244,228.6278 C196.1884,228.7698 196.4984,228.9858 196.7524,229.2738 C197.0054,229.5618 197.1314,229.9518 197.1314,230.4428 C197.1314,230.8498 197.0224,231.2208 196.8034,231.5548 C196.5844,231.8888 196.2484,232.1538 195.7954,232.3498 C195.3414,232.5458 194.7854,232.6438 194.1244,232.6438 C193.5254,232.6438 192.9514,232.5478 192.4014,232.3558" id="Fill-27" fill="#231F20" mask="url(#mask-2)"></path><path d="M131.5059,143.14 C131.8069,143.14 132.0389,143.074 132.2029,142.942 C132.3669,142.809 132.4489,142.625 132.4489,142.39 C132.4489,142.154 132.3669,141.972 132.2029,141.843 C132.0389,141.715 131.8069,141.65 131.5059,141.65 L130.7129,141.65 L130.7129,143.14 L131.5059,143.14 Z M133.1189,143.193 C132.9729,143.415 132.7639,143.583 132.4919,143.697 L133.4359,145.144 L132.5139,145.144 L131.6779,143.858 L131.5609,143.858 L130.7249,143.858 L130.7249,145.144 L129.8029,145.144 L129.8029,140.921 L131.5609,140.921 C132.1099,140.921 132.5439,141.054 132.8609,141.318 C133.1799,141.582 133.3389,141.939 133.3389,142.39 C133.3389,142.704 133.2659,142.972 133.1189,143.193 L133.1189,143.193 Z M132.9899,145.798 C133.4729,145.512 133.8539,145.124 134.1319,144.635 C134.4099,144.145 134.5499,143.604 134.5499,143.011 C134.5499,142.418 134.4139,141.881 134.1429,141.398 C133.8709,140.916 133.4959,140.536 133.0179,140.257 C132.5389,139.978 131.9989,139.839 131.3989,139.839 C130.7989,139.839 130.2559,139.98 129.7699,140.263 C129.2839,140.545 128.9039,140.929 128.6289,141.414 C128.3539,141.9 128.2169,142.44 128.2169,143.033 C128.2169,143.626 128.3539,144.165 128.6289,144.651 C128.9039,145.137 129.2829,145.521 129.7649,145.803 C130.2469,146.085 130.7849,146.226 131.3769,146.226 C131.9709,146.226 132.5079,146.083 132.9899,145.798 L132.9899,145.798 Z M133.3219,139.743 C133.8989,140.071 134.3499,140.523 134.6789,141.098 C135.0069,141.673 135.1719,142.311 135.1719,143.011 C135.1719,143.711 135.0039,144.353 134.6679,144.935 C134.3319,145.517 133.8749,145.976 133.2959,146.312 C132.7169,146.648 132.0779,146.816 131.3769,146.816 C130.6779,146.816 130.0389,146.648 129.4649,146.312 C128.8899,145.976 128.4359,145.519 128.1039,144.94 C127.7719,144.362 127.6059,143.726 127.6059,143.033 C127.6059,142.34 127.7719,141.704 128.1039,141.125 C128.4359,140.546 128.8919,140.089 129.4709,139.753 C130.0489,139.417 130.6919,139.249 131.3989,139.249 C132.1069,139.249 132.7479,139.414 133.3219,139.743 L133.3219,139.743 Z" id="Fill-28" fill="#231F20" mask="url(#mask-2)"></path><path d="M24.6177,141.328 L23.9787,141.429 L23.3737,138.336 C22.8697,135.916 20.7187,134.168 18.2307,134.168 L10.4317,134.168 L10.4317,146.27 L16.6507,146.27 C17.7937,146.27 18.7007,145.362 18.7007,144.219 L18.7007,139.748 L19.3397,139.748 L19.3397,153.396 L18.7007,153.396 L18.7007,148.79 C18.7007,147.748 17.8607,146.909 16.8187,146.909 L10.4317,146.909 L10.4317,160.286 C10.4317,160.825 10.6677,161.295 11.0037,161.665 C11.3727,162.035 11.8777,162.237 12.4157,162.237 L12.4157,162.909 L3.9447,162.909 L3.9447,162.237 C5.0197,162.237 5.9277,161.363 5.9277,160.286 L5.9277,136.118 C5.9277,135.042 5.0197,134.168 3.9447,134.168 L3.9447,133.495 L23.0377,133.495 L24.6177,141.328 Z" id="Fill-29" fill="#231F20" mask="url(#mask-2)"></path><path d="M28.6484,152.555 L38.2284,152.555 C38.1614,147.513 36.0444,143.513 33.4214,143.513 C30.8334,143.513 28.6144,147.076 28.6144,151.681 C28.6144,151.984 28.6484,152.253 28.6484,152.555 L28.6484,152.555 Z M42.7664,153.194 L28.7154,153.194 C29.2874,158.304 32.6484,160.489 35.6404,160.489 C37.4214,160.489 39.8764,159.817 41.2204,157.934 L41.5234,158.237 C40.0774,161.027 37.3884,162.909 33.7574,162.909 C27.8414,162.909 24.2444,158.606 24.1104,153.194 L24.1104,152.555 C24.2444,147.177 27.5394,142.841 33.4214,142.841 C39.3374,142.841 42.6324,147.177 42.7664,152.555 L42.7664,153.194 Z" id="Fill-30" fill="#231F20" mask="url(#mask-2)"></path><path d="M49.4521,152.555 L59.0321,152.555 C58.9651,147.513 56.8481,143.513 54.2251,143.513 C51.6371,143.513 49.4181,147.076 49.4181,151.681 C49.4181,151.984 49.4521,152.253 49.4521,152.555 L49.4521,152.555 Z M63.5701,153.194 L49.5191,153.194 C50.0911,158.304 53.4521,160.489 56.4441,160.489 C58.2251,160.489 60.6801,159.817 62.0241,157.934 L62.3271,158.237 C60.8811,161.027 58.1921,162.909 54.5611,162.909 C48.6451,162.909 45.0481,158.606 44.9141,153.194 L44.9141,152.555 C45.0481,147.177 48.3431,142.841 54.2251,142.841 C60.1411,142.841 63.4361,147.177 63.5701,152.555 L63.5701,153.194 Z" id="Fill-31" fill="#231F20" mask="url(#mask-2)"></path><path d="M72.8457,162.2367 L72.8457,162.9087 L64.3747,162.9087 L64.3747,162.2367 C65.4497,162.2367 66.3577,161.3627 66.3577,160.2867 L66.3577,136.7897 C66.3577,135.7147 65.4497,134.8067 64.3747,134.8067 L64.3747,134.1677 L70.8627,133.1597 L70.8627,160.2867 C70.8627,160.8247 71.0977,161.2957 71.4337,161.6657 C71.8037,162.0347 72.3077,162.2367 72.8457,162.2367" id="Fill-32" fill="#231F20" mask="url(#mask-2)"></path><path d="M75.3989,136.3529 C75.3989,134.7729 76.6759,133.5289 78.2559,133.5289 C79.8019,133.5289 81.0799,134.7729 81.0799,136.3529 C81.0799,137.8989 79.8019,139.1769 78.2559,139.1769 C76.6759,139.1769 75.3989,137.8989 75.3989,136.3529 M82.6929,162.2699 L82.6929,162.9089 L74.2219,162.9089 L74.2219,162.2699 C75.2979,162.2699 76.2059,161.3629 76.2059,160.2869 L76.2059,146.1679 C76.2059,145.0599 75.2979,144.1859 74.2219,144.1859 L74.2219,143.5469 L80.7099,142.5379 L80.7099,160.2869 C80.7099,160.8249 80.9449,161.3299 81.2809,161.6649 C81.6509,162.0349 82.1549,162.2699 82.6929,162.2699" id="Fill-33" fill="#231F20" mask="url(#mask-2)"></path><path d="M105.9199,162.2367 L105.9199,162.9087 L97.4479,162.9087 L97.4479,162.2367 C98.5579,162.2367 99.4319,161.3627 99.4319,160.2537 L99.4319,148.8907 C99.4319,146.3027 98.3559,144.4877 95.6329,144.4877 C93.8849,144.4877 91.6999,146.2027 90.4569,147.8827 L90.4569,160.2867 C90.4569,160.8247 90.6919,161.2957 91.0619,161.6657 C91.3979,162.0347 91.9019,162.2367 92.4399,162.2367 L92.4399,162.9087 L83.9689,162.9087 L83.9689,162.2367 C85.0779,162.2367 85.9519,161.3627 85.9519,160.2867 L85.9519,146.4707 C85.9519,145.3957 85.0779,144.4877 83.9689,144.4877 L83.9689,143.8487 L90.4569,142.8407 L90.4569,146.7067 C91.9359,145.0597 94.0869,142.8407 97.7169,142.8407 C102.8599,142.8407 103.9359,146.3027 103.9359,150.0677 L103.9359,160.2537 C103.9359,160.8247 104.1719,161.2957 104.5409,161.6657 C104.8769,162.0347 105.3809,162.2367 105.9199,162.2367" id="Fill-34" fill="#231F20" mask="url(#mask-2)"></path><path d="M112.4375,151.5804 C112.4375,156.0174 114.2855,159.6474 116.5385,159.6474 C118.8245,159.6474 120.6385,156.0174 120.6385,151.5804 C120.6385,147.1434 118.8245,143.5464 116.5385,143.5464 C114.2855,143.5464 112.4375,147.1434 112.4375,151.5804 L112.4375,151.5804 Z M119.7655,163.7824 C122.4195,163.7824 125.8825,164.7244 125.8825,167.5814 C125.8825,171.2124 119.6975,172.2874 119.1265,172.2874 C119.1265,172.2874 121.3445,171.7834 121.3445,170.1024 C121.3445,168.3204 118.7905,168.2874 117.6135,168.2874 L112.3695,168.2874 C109.6135,168.2874 107.2265,167.0434 107.2265,164.5224 C107.2265,161.2274 110.8905,159.4134 111.9665,158.9424 C109.5115,157.4304 107.8655,154.6734 107.8655,151.5804 C107.8655,146.7734 111.7645,142.8744 116.5385,142.8744 C117.3105,142.8744 118.0835,142.9754 118.7905,143.1764 C119.3945,142.0344 121.5805,138.4704 125.8825,138.4704 C124.8405,141.6974 124.4705,142.8744 124.4705,142.8744 C124.0005,142.4034 123.1935,141.7984 122.1185,141.7984 C121.3115,141.7984 120.3025,142.1684 119.2265,143.3114 C122.7225,144.4544 125.2445,147.7154 125.2445,151.5804 C125.2445,156.3534 121.3445,160.2534 116.5385,160.2534 C114.9585,160.2534 113.4455,159.8164 112.1675,159.0434 C111.0585,159.6474 109.3775,160.7574 109.3775,162.1014 C109.3775,163.6824 111.4615,163.7824 112.9415,163.7824 L119.7655,163.7824 Z" id="Fill-35" fill="#231F20" mask="url(#mask-2)"></path><path d="M28.9204,187.2406 C27.8114,187.2406 26.9374,188.1476 26.9374,189.2226 L26.9374,198.2996 C26.9374,198.5346 26.9374,198.7696 26.9704,198.9716 C27.1054,200.7536 27.6094,201.9296 28.7864,203.2406 L25.0884,203.2406 C23.8444,203.2406 23.0714,202.8036 22.7014,202.1656 C21.0544,202.9046 19.2054,203.3076 17.1884,203.3076 C9.2214,203.3076 3.9444,196.6856 3.9444,188.5516 C3.9444,179.6776 9.6254,173.7946 17.0874,173.7946 C20.0794,173.7946 22.7354,174.8026 24.7184,176.5166 C24.9534,176.7526 25.2904,176.8526 25.5924,176.8526 C26.0964,176.8526 26.5674,176.5846 26.8024,176.0796 L27.3744,176.3486 L23.3744,185.1226 L22.8024,184.8536 L23.7104,182.7356 C24.0794,181.9626 24.2484,181.1556 24.2484,180.3486 C24.2484,177.4246 21.8954,174.7356 18.2314,174.7356 L18.1294,174.7356 C12.9194,174.7356 8.9534,180.3826 8.9534,187.3746 C8.9534,195.1056 13.1214,200.9886 20.0124,200.9886 L20.0794,200.9886 C20.9204,200.9886 21.6934,200.8876 22.3994,200.7196 L22.3994,188.9216 C22.3994,188.0126 21.6594,187.2406 20.7184,187.2406 L13.0544,187.2406 L13.0544,186.6016 L28.9204,186.6016 L28.9204,187.2406 Z" id="Fill-36" fill="#231F20" mask="url(#mask-2)"></path><path d="M44.749,193.1898 C44.749,188.0128 42.463,183.8118 39.673,183.8118 C36.85,183.8118 34.598,188.0128 34.598,193.1898 C34.598,198.3668 36.85,202.5688 39.673,202.5688 C42.463,202.5688 44.749,198.3668 44.749,193.1898 M49.354,193.1898 C49.354,198.7368 45.892,203.2408 39.673,203.2408 C33.455,203.2408 29.992,198.7368 29.992,193.1898 C29.992,187.6438 33.455,183.1728 39.673,183.1728 C45.892,183.1728 49.354,187.6438 49.354,193.1898" id="Fill-37" fill="#231F20" mask="url(#mask-2)"></path><path d="M66.561,193.1898 C66.561,188.0128 64.275,183.8118 61.485,183.8118 C58.662,183.8118 56.41,188.0128 56.41,193.1898 C56.41,198.3668 58.662,202.5688 61.485,202.5688 C64.275,202.5688 66.561,198.3668 66.561,193.1898 M71.166,193.1898 C71.166,198.7368 67.704,203.2408 61.485,203.2408 C55.267,203.2408 51.804,198.7368 51.804,193.1898 C51.804,187.6438 55.267,183.1728 61.485,183.1728 C67.704,183.1728 71.166,187.6438 71.166,193.1898" id="Fill-38" fill="#231F20" mask="url(#mask-2)"></path><path d="M88.3398,198.6361 L88.3398,187.6101 C87.9698,185.6261 86.0538,183.8121 83.9358,183.8121 C80.3398,183.8121 78.1538,187.7781 78.1538,192.9541 C78.1538,198.7371 80.6418,201.5271 83.8358,201.5271 C85.4828,201.5271 87.4658,200.4171 88.3398,198.6361 L88.3398,198.6361 Z M92.8778,200.6181 C92.8778,201.6951 93.7518,202.6021 94.8278,202.6021 L94.8278,203.2401 L88.3398,203.2401 L88.3398,199.9801 C86.9948,201.9971 84.8098,203.2401 82.2218,203.2401 C77.1458,203.2401 73.6498,199.0731 73.6498,193.5261 C73.6498,187.4421 76.9438,183.1731 82.9618,183.1731 L83.0278,183.1731 C84.8778,183.1731 86.7258,183.7441 88.3398,184.7191 L88.3398,177.1221 C88.3398,176.0131 87.4658,175.1391 86.3568,175.1391 L86.3568,174.5001 L92.8778,173.4911 L92.8778,200.6181 Z" id="Fill-39" fill="#231F20" mask="url(#mask-2)"></path><path d="M115.0576,174.5004 C113.9486,174.5004 113.0746,175.3744 113.0746,176.4494 L113.0746,200.6184 C113.0746,201.6944 113.9486,202.5684 115.0576,202.5684 L115.0576,203.2404 L106.5856,203.2404 L106.5856,202.5684 C107.6616,202.5684 108.5366,201.6944 108.5366,200.6184 L108.5366,176.4494 C108.5366,175.3744 107.6616,174.5004 106.5856,174.5004 L106.5856,173.8274 L115.0576,173.8274 L115.0576,174.5004 Z" id="Fill-40" fill="#231F20" mask="url(#mask-2)"></path><path d="M138.3848,202.5687 L138.3848,203.2407 L129.9138,203.2407 L129.9138,202.5687 C131.0238,202.5687 131.8968,201.6947 131.8968,200.5857 L131.8968,189.2227 C131.8968,186.6347 130.8218,184.8197 128.0988,184.8197 C126.3508,184.8197 124.1658,186.5347 122.9218,188.2147 L122.9218,200.6187 C122.9218,201.1567 123.1568,201.6277 123.5278,201.9977 C123.8638,202.3667 124.3668,202.5687 124.9058,202.5687 L124.9058,203.2407 L116.4338,203.2407 L116.4338,202.5687 C117.5428,202.5687 118.4178,201.6947 118.4178,200.6187 L118.4178,186.8027 C118.4178,185.7277 117.5428,184.8197 116.4338,184.8197 L116.4338,184.1807 L122.9218,183.1727 L122.9218,187.0387 C124.4008,185.3907 126.5528,183.1727 130.1828,183.1727 C135.3258,183.1727 136.4018,186.6347 136.4018,190.3997 L136.4018,200.5857 C136.4018,201.1567 136.6368,201.6277 137.0058,201.9977 C137.3428,202.3667 137.8468,202.5687 138.3848,202.5687" id="Fill-41" fill="#231F20" mask="url(#mask-2)"></path><path d="M151.5586,192.9545 C151.5586,192.9545 155.3576,194.8375 155.3576,197.7955 L155.3576,197.8625 C155.2886,201.9305 150.9866,203.2405 147.5916,203.2405 L146.9866,203.2405 C143.2216,203.0395 140.0626,201.1565 138.7166,200.1145 L142.0786,194.5685 C142.0786,194.8375 142.0446,195.1055 142.0446,195.3755 C142.0446,200.1825 144.6336,202.5015 147.2216,202.6015 L147.3906,202.6015 C148.7346,202.6015 150.7176,202.2325 150.8526,199.7785 L150.8526,199.5765 C150.8526,198.0305 149.7776,197.0565 148.6336,196.4175 L142.8186,193.2575 C142.8186,193.2575 139.6246,191.6775 139.6246,188.6515 C139.6246,184.9205 143.0876,183.1735 146.9536,183.1735 L147.1886,183.1735 C150.5836,183.2395 153.3066,184.8875 155.0206,186.7695 L151.2556,190.8375 C151.3566,190.3325 151.3906,189.7955 151.3906,189.2905 C151.3906,186.5345 150.0796,183.8785 146.8856,183.8115 L146.7856,183.8115 C145.4406,183.8115 143.3556,184.4835 143.3556,186.5345 C143.3556,188.4165 145.9116,189.7275 147.1886,190.3995 L151.5586,192.9545 Z" id="Fill-42" fill="#231F20" mask="url(#mask-2)"></path><path d="M157.5723,176.6849 C157.5723,175.1049 158.8493,173.8619 160.4293,173.8619 C161.9763,173.8619 163.2543,175.1049 163.2543,176.6849 C163.2543,178.2319 161.9763,179.5089 160.4293,179.5089 C158.8493,179.5089 157.5723,178.2319 157.5723,176.6849 M164.8673,202.6019 L164.8673,203.2409 L156.3963,203.2409 L156.3963,202.6019 C157.4713,202.6019 158.3793,201.6949 158.3793,200.6189 L158.3793,186.4999 C158.3793,185.3909 157.4713,184.5169 156.3963,184.5169 L156.3963,183.8779 L162.8843,182.8709 L162.8843,200.6189 C162.8843,201.1569 163.1193,201.6619 163.4553,201.9969 C163.8243,202.3669 164.3293,202.6019 164.8673,202.6019" id="Fill-43" fill="#231F20" mask="url(#mask-2)"></path><path d="M180.6641,198.6361 L180.6641,187.6101 C180.2941,185.6261 178.3781,183.8121 176.2611,183.8121 C172.6641,183.8121 170.4781,187.7781 170.4781,192.9541 C170.4781,198.7371 172.9661,201.5271 176.1591,201.5271 C177.8071,201.5271 179.7901,200.4171 180.6641,198.6361 L180.6641,198.6361 Z M185.2021,200.6181 C185.2021,201.6951 186.0761,202.6021 187.1511,202.6021 L187.1511,203.2401 L180.6641,203.2401 L180.6641,199.9801 C179.3191,201.9971 177.1351,203.2401 174.5461,203.2401 C169.4711,203.2401 165.9751,199.0731 165.9751,193.5261 C165.9751,187.4421 169.2681,183.1731 175.2851,183.1731 L175.3521,183.1731 C177.2011,183.1731 179.0511,183.7441 180.6641,184.7191 L180.6641,177.1221 C180.6641,176.0131 179.7901,175.1391 178.6811,175.1391 L178.6811,174.5001 L185.2021,173.4911 L185.2021,200.6181 Z" id="Fill-44" fill="#231F20" mask="url(#mask-2)"></path><path d="M192.7617,192.8871 L202.3417,192.8871 C202.2747,187.8451 200.1577,183.8451 197.5347,183.8451 C194.9467,183.8451 192.7287,187.4081 192.7287,192.0131 C192.7287,192.3161 192.7617,192.5851 192.7617,192.8871 L192.7617,192.8871 Z M206.8797,193.5261 L192.8287,193.5261 C193.4007,198.6361 196.7617,200.8211 199.7537,200.8211 C201.5347,200.8211 203.9897,200.1491 205.3337,198.2661 L205.6367,198.5691 C204.1907,201.3591 201.5017,203.2411 197.8707,203.2411 C191.9547,203.2411 188.3587,198.9381 188.2237,193.5261 L188.2237,192.8871 C188.3587,187.5091 191.6527,183.1731 197.5347,183.1731 C203.4507,183.1731 206.7447,187.5091 206.8797,192.8871 L206.8797,193.5261 Z" id="Fill-45" fill="#231F20" mask="url(#mask-2)"></path><path d="M6.3296,256.9593 L6.4676,257.0283 C7.0896,257.0283 8.7826,255.9923 8.7826,255.3353 C8.7476,255.3013 8.7476,255.2673 8.7476,255.2313 C8.6786,255.1973 8.5756,255.1633 8.5406,255.1633 C7.8156,255.1633 6.7096,256.4403 6.3296,256.9593 M17.2806,257.1323 C14.6206,259.0323 9.9226,261.6923 7.0556,261.6923 C5.6386,261.6923 4.6716,261.0353 4.6716,259.2733 C4.6716,257.0983 6.6756,254.5073 8.5406,254.5073 C8.9896,254.5073 9.4386,254.7823 9.4386,255.2673 C9.4386,256.2333 7.2966,258.2713 6.3646,258.2713 C5.3626,258.2713 5.3626,258.7213 5.3626,259.5853 C5.3626,260.8623 6.1576,261.3473 7.3316,261.3473 C9.8876,261.3473 14.2756,259.0663 17.0736,256.9933 C17.6606,256.5453 17.9026,256.6833 17.2806,257.1323" id="Fill-46" fill="#231F20" mask="url(#mask-2)"></path><path d="M19.9736,267.3236 C19.9736,266.8746 19.6976,263.9036 19.1796,263.9036 C18.9726,263.9036 18.3846,264.7316 18.2466,264.8706 C16.6576,266.8746 14.0326,270.6746 14.0326,273.3346 C14.0326,274.0946 14.2736,274.4396 15.0686,274.4396 C18.1426,274.4396 19.9736,269.9146 19.9736,267.3236 M27.1596,257.4426 C27.6426,257.2016 28.8176,256.6826 29.3696,256.6826 C29.4046,256.6826 29.4736,256.6826 29.5086,256.7186 C29.3696,256.8556 29.1976,256.8896 29.0246,256.9596 C26.3996,257.7886 22.3576,260.8976 20.0086,262.8326 C20.3886,263.9716 20.6646,264.9396 20.6646,266.1826 C20.6646,267.9796 20.1816,269.8446 19.3176,271.4336 C18.5226,272.8506 16.6916,274.9586 14.8956,274.9586 C13.7556,274.9586 13.4106,274.1976 13.4106,273.1616 C13.4106,270.3636 16.4156,266.2186 18.1086,264.1786 C18.3496,263.8686 18.5916,263.5576 18.7996,263.2126 C18.7646,262.9356 17.9706,262.3486 17.7286,262.2456 C17.1406,261.9336 15.9316,262.0036 15.9316,261.0706 C15.9316,260.3096 20.4926,257.5816 20.4926,256.2686 C20.4926,256.0956 20.3536,256.0266 20.2156,256.0266 C18.8686,256.0266 16.1396,258.4796 15.6556,258.4796 C15.5516,258.4796 15.4486,258.3416 15.4486,258.2376 C15.4486,257.5116 19.4556,255.5086 20.4576,255.5086 C20.8376,255.5086 21.2176,255.8876 21.2176,256.2686 C21.2176,257.5466 18.6956,259.7926 17.8316,260.5876 C18.6266,261.1396 19.1106,261.4506 19.6626,262.2456 C22.3916,260.5526 24.6026,258.6176 27.1596,257.4426" id="Fill-47" fill="#231F20" mask="url(#mask-2)"></path><path d="M31.0615,257.1322 C31.0615,256.8902 30.9235,256.6832 30.6465,256.6832 C29.4375,256.6832 27.1925,260.2412 27.1925,261.3122 C27.1925,261.3472 27.1575,261.4502 27.2275,261.4502 C27.8835,260.9672 31.0615,257.9272 31.0615,257.1322 M28.8505,281.3142 C32.6505,278.0672 35.9665,266.9082 35.2415,261.5882 C33.9985,262.7292 32.6855,263.8682 31.5445,265.0772 C28.3325,268.5672 25.0505,274.5432 25.0505,279.3112 C25.0505,280.3812 25.3955,282.2812 26.7775,282.2812 C27.5035,282.2812 28.3325,281.7292 28.8505,281.3142 M43.4985,256.6832 C43.5675,256.6832 43.6365,256.7182 43.6365,256.7862 L43.4285,256.8902 C41.9435,256.8902 37.0725,259.8962 36.0705,260.7592 C36.7615,266.7012 34.7925,272.8852 32.3055,277.5142 C31.4075,279.2412 29.0925,282.7652 26.8125,282.7652 C24.9125,282.7652 24.4985,280.3132 24.4985,278.8962 C24.4985,272.4702 30.4395,265.3892 35.1375,261.2782 C34.9305,260.4832 34.2745,257.6852 33.2035,257.6852 C31.1995,257.6852 28.3675,262.1412 27.2275,262.1412 C26.8125,262.1412 26.6395,261.7962 26.6395,261.4152 C26.6395,260.0342 27.6065,259.0322 28.2285,257.8922 C28.4015,257.2712 30.4395,255.8542 31.1655,255.8542 C31.8555,255.8542 31.9255,256.2342 32.2705,256.6832 C34.8955,255.8882 35.5865,258.3412 36.0015,260.5872 C37.1065,259.5852 41.9095,256.6832 43.4985,256.6832" id="Fill-48" fill="#231F20" mask="url(#mask-2)"></path><path d="M44.3599,251.5355 C44.6019,251.5355 44.6359,251.8815 44.6359,252.0545 C44.6359,252.3305 44.4639,252.7105 44.1519,252.7105 C43.9109,252.7105 43.6339,252.3995 43.6339,252.1915 C43.6339,251.8815 44.0839,251.5355 44.3599,251.5355 M43.8759,255.9235 C44.1179,255.9235 44.2559,256.0605 44.2559,256.3035 C44.2559,257.0975 43.9799,257.8235 43.9799,258.6175 C43.9799,259.7925 44.2559,260.7595 45.6729,260.7595 C47.8839,260.7595 51.7869,257.9955 53.0659,256.9255 C53.3069,256.7185 53.4799,256.6485 53.5839,256.6485 C53.6879,256.6485 53.6179,256.8215 53.2039,257.1665 C51.8219,258.3065 47.9869,261.1045 45.3969,261.1045 C43.6689,261.1045 43.2549,259.6885 43.2549,258.3415 C43.2549,257.9275 43.2549,255.9235 43.8759,255.9235" id="Fill-49" fill="#231F20" mask="url(#mask-2)"></path><path d="M67.9512,260.6214 C67.9512,259.7574 68.2962,255.1284 69.3672,255.1284 C69.5752,255.1284 69.8162,255.3014 69.8162,255.5434 C69.8162,255.6124 69.5052,256.3034 69.4362,256.4064 C68.8492,257.6844 68.5042,259.2734 68.5042,260.6904 C68.5042,261.0704 68.5042,262.2794 69.1252,262.2794 C70.0932,262.2794 72.3382,257.0284 72.6832,255.8534 C72.7872,255.5434 72.9942,255.1974 73.3742,255.1974 C73.7552,255.1974 74.0652,255.5084 74.0652,255.9234 C74.0652,257.0624 72.7182,260.6554 74.9642,260.6554 C77.6932,260.6554 80.8022,257.9274 81.9072,256.9934 C82.4262,256.5794 82.5982,256.8554 82.1152,257.2704 C80.5952,258.5484 77.0712,261.0704 74.9642,261.0704 C73.3052,261.0704 72.8562,259.5504 72.6492,258.2374 C72.1652,259.1364 70.4042,262.7984 69.0912,262.7984 C68.9182,262.7984 68.7802,262.7634 68.6412,262.6594 C67.9852,262.1764 67.9512,261.3474 67.9512,260.6214" id="Fill-50" fill="#231F20" mask="url(#mask-2)"></path><path d="M82.9072,254.3343 C82.9072,254.3343 82.9072,254.4723 82.9422,254.4723 C84.7042,254.3683 87.8132,246.0773 87.6752,243.1413 C87.6402,242.4843 87.4332,242.1053 87.0182,242.1393 C84.9462,242.3473 82.8032,252.6763 82.9072,254.3343 M92.3382,257.0983 C90.8182,261.2433 87.1572,266.2523 84.5652,266.2523 C83.1492,266.2523 82.0782,264.7673 81.8362,260.9323 C81.3872,253.5733 84.2552,241.5523 86.9842,241.4133 C87.6752,241.3793 87.9862,242.0013 88.0542,243.0373 C88.2622,246.6993 85.0492,255.3703 82.8032,256.5103 C82.6312,256.5793 82.4242,258.5833 82.5272,260.7593 C82.7692,264.3873 83.7022,265.7333 84.8762,265.7333 C87.3982,265.7333 91.0262,260.0343 92.0622,256.9593 C92.2002,256.5103 92.4422,256.8213 92.3382,257.0983" id="Fill-51" fill="#231F20" mask="url(#mask-2)"></path><path d="M91.6113,260.6214 C91.6113,259.7574 91.9573,255.1284 93.0273,255.1284 C93.2353,255.1284 93.4763,255.3014 93.4763,255.5434 C93.4763,255.6124 93.1663,256.3034 93.0973,256.4064 C92.5093,257.6844 92.1643,259.2734 92.1643,260.6904 C92.1643,261.0704 92.1643,262.2794 92.7863,262.2794 C93.7543,262.2794 95.9993,257.0284 96.3433,255.8534 C96.4483,255.5434 96.6553,255.1974 97.0353,255.1974 C97.4153,255.1974 97.7263,255.5084 97.7263,255.9234 C97.7263,257.0624 96.3793,260.6554 98.6253,260.6554 C101.3533,260.6554 104.4633,257.9274 105.5683,256.9934 C106.0863,256.5794 106.2583,256.8554 105.7753,257.2704 C104.2563,258.5484 100.7313,261.0704 98.6253,261.0704 C96.9663,261.0704 96.5173,259.5504 96.3093,258.2374 C95.8263,259.1364 94.0643,262.7984 92.7523,262.7984 C92.5793,262.7984 92.4403,262.7634 92.3023,262.6594 C91.6463,262.1764 91.6113,261.3474 91.6113,260.6214" id="Fill-52" fill="#231F20" mask="url(#mask-2)"></path><path d="M104.2539,260.8978 C104.2539,258.9628 106.0839,254.8178 108.3639,254.8178 C108.7789,254.8178 109.2969,255.1638 109.2969,255.6128 C109.2969,256.3728 107.9499,256.1298 106.8449,257.0628 C105.7389,258.0308 104.8409,259.5858 104.8409,261.0708 C104.8409,262.1758 105.4279,262.8668 106.5679,262.8668 C109.5039,262.8668 114.4099,258.4108 116.7939,256.6828 C116.8279,256.6828 116.8979,256.7178 116.8979,256.7518 C116.8979,256.8898 114.5829,258.6868 114.3749,258.8598 C112.5449,260.3448 110.3679,262.1758 108.0539,262.9018 C107.6389,263.0398 107.2249,263.1428 106.7749,263.1778 C106.8789,263.3508 106.8449,263.7308 106.7059,264.4908 C106.6029,265.1128 106.5679,265.6658 106.5679,265.6998 C106.6029,265.6998 106.9139,265.5958 107.2589,265.4228 C107.6739,265.2508 107.9839,265.1468 108.2269,265.1468 C108.4689,265.1468 108.6409,265.2158 108.8139,265.3888 C109.1249,265.6998 109.1249,266.2178 108.8479,266.7018 C108.4689,267.2888 107.3629,268.2208 106.4989,268.6358 C106.0499,268.8428 105.6699,269.0158 105.6699,269.0158 C105.6349,269.0158 105.4969,268.9468 105.3939,268.8778 C105.2559,268.7738 105.1519,268.6698 105.1519,268.5668 C105.1519,268.3938 105.4969,268.1178 105.7389,268.1178 C106.1879,268.1178 108.0199,266.9428 108.3639,266.3898 C108.6069,265.9758 108.6069,265.7688 108.3639,265.6298 C108.0879,265.4928 107.6049,265.6298 106.8109,266.1148 C106.5329,266.2868 106.3609,266.3898 106.2579,266.3898 C105.9809,266.3898 105.9809,265.9418 105.9459,264.6638 C105.9119,263.8348 105.9119,263.3848 105.9809,263.1778 C105.8089,263.1428 105.6349,263.1088 105.4629,263.0398 C104.5999,262.6598 104.2539,261.7608 104.2539,260.8978" id="Fill-53" fill="#231F20" mask="url(#mask-2)"></path><path d="M29.1043,23.1332 C30.2953,23.0512 31.2443,22.5042 31.2893,21.0652 C31.3363,19.5502 30.4733,18.8152 29.0053,18.7932 C27.5813,18.7722 26.7903,19.6422 26.7823,20.9352 C26.7743,22.2312 27.5753,23.0712 29.1043,23.1332 M21.5193,53.8432 C20.3653,52.7452 19.3023,51.6662 18.1653,50.6722 C17.1453,49.7812 15.9803,49.7392 14.9983,50.6842 C13.9913,51.6532 14.0843,52.8072 14.9743,53.8232 C15.7903,54.7542 16.6683,55.6372 17.5803,56.4752 C18.2973,57.1322 18.4383,57.5972 17.7863,58.5052 C16.5043,60.2892 15.4933,62.2642 14.2913,64.1082 C13.4483,65.4022 13.4363,66.5492 14.1793,67.9412 C16.3363,71.9832 18.9793,75.6792 22.1463,78.9502 C44.4583,101.9892 82.1263,98.0762 99.4803,71.1042 C101.8203,67.4672 102.2503,64.4802 99.4493,61.1242 C98.5313,60.0242 97.2273,58.7482 97.2083,57.5352 C97.1883,56.2672 99.0173,55.4512 99.9603,54.3662 C100.0953,54.2102 100.2493,54.0692 100.3793,53.9092 C101.2143,52.8852 101.4823,51.7722 100.4823,50.7572 C99.4463,49.7052 98.2473,49.7832 97.1593,50.7392 C96.2803,51.5112 95.4553,52.3462 94.6293,53.1752 C94.2103,53.5942 93.9543,53.8592 93.3443,53.2762 C91.5553,51.5652 89.6973,49.9212 87.7943,48.3372 C87.0633,47.7282 86.9363,47.2722 87.4563,46.4612 C88.5703,44.7232 89.5943,42.9272 90.6513,41.1532 C91.5043,39.7222 91.6033,38.3322 89.9993,37.4212 C88.4193,36.5232 87.4273,37.5172 86.6533,38.8112 C85.6633,40.4652 84.6433,42.1022 83.6953,43.7802 C83.2173,44.6272 82.8123,44.9612 81.7853,44.4122 C79.7253,43.3112 77.6023,42.3082 75.4343,41.4402 C74.3803,41.0182 74.2923,40.5702 74.6363,39.6102 C75.3063,37.7392 75.8723,35.8302 76.4513,33.9272 C77.0373,32.0022 76.5143,30.5232 75.0333,30.2172 C73.3323,29.8652 72.5483,30.9272 72.0963,32.4042 C71.4733,34.4392 70.7483,36.4442 70.1603,38.4892 C69.9223,39.3182 69.6433,39.6062 68.7303,39.4042 C66.3143,38.8702 63.8783,38.3902 61.3943,38.3072 C60.4213,38.2752 60.0823,37.8562 60.1003,36.9032 C60.1443,34.6992 60.1443,32.4942 60.1013,30.2902 C60.0613,28.2152 59.1413,27.0632 57.6073,27.1902 C55.7303,27.3452 55.3293,28.7202 55.3073,30.2812 C55.2763,32.4852 55.2653,34.6912 55.3113,36.8942 C55.3313,37.8552 54.9643,38.2052 54.0153,38.3132 C51.6263,38.5852 49.2293,38.8692 46.8763,39.3512 C45.7653,39.5782 45.4443,39.2942 45.1783,38.2922 C44.7033,36.5032 44.0713,34.7552 43.5083,32.9902 C43.0143,31.4392 42.5233,29.7872 40.3783,30.2222 C38.7833,30.5452 38.3663,32.0502 39.0813,34.3182 C39.6383,36.0842 40.1553,37.8652 40.7773,39.6072 C41.1083,40.5352 41.1083,41.0152 40.0083,41.4452 C37.8343,42.2932 35.7163,43.3082 33.6483,44.3942 C32.6583,44.9142 32.2223,44.6902 31.7283,43.8012 C30.7593,42.0562 29.7003,40.3622 28.6713,38.6512 C27.8603,37.3042 26.7783,36.5562 25.2563,37.5012 C23.7453,38.4392 23.9403,39.7612 24.7233,41.0932 C25.7353,42.8142 26.7033,44.5672 27.8183,46.2202 C28.5223,47.2642 28.3173,47.8212 27.3683,48.5642 C25.3163,50.1702 23.2893,51.8212 21.5193,53.8432 M-2.30018147e-06,57.6002 C-0.1017,25.9982 25.6213,0.0042 57.5723,0.0002 C89.8353,-0.0038 115.2073,25.5332 115.394268,57.5392 C115.5763,89.1292 89.7793,115.1282 57.8393,115.140204 C25.6953,115.1512 0.2813,89.7262 -2.30018147e-06,57.6002" id="Fill-54" fill="#F59B93" mask="url(#mask-2)"></path><path d="M57.7296,50.6298534 C49.2576,50.6089 41.9976,57.6869 42.1306,66.0549 C42.2626,74.3719 48.5816,81.5209 57.6816,81.5499907 C66.5606,81.5789 73.0806,74.6509 73.2826,66.1019 C73.4796,57.7719 66.2276,50.6509 57.7296,50.6298534 M57.2056,89.4439 C41.1056,88.7509 28.1706,81.6839 19.2866,67.4939 C18.7206,66.5899 18.5966,65.8649 19.1786,64.8579 C30.8496,44.6269 57.0016,36.8679 77.7886,47.4939 C85.7336,51.5549 91.8666,57.5049 96.4336,65.1409 C96.9176,65.9499 96.7926,66.4269 96.3496,67.1409 C87.8716,80.8189 75.6726,88.2849 59.5606,89.2579 C58.9426,89.2959 58.3246,89.3549 57.2056,89.4439" id="Fill-55" fill="#F59B93" mask="url(#mask-2)"></path></g></g></g></svg> 