<?xml version="1.0" encoding="UTF-8"?> <svg xmlns="http://www.w3.org/2000/svg" viewBox="0 0 459.93 402.04"><g id="Layer_2" data-name="Layer 2"><g id="Layer_1-2" data-name="Layer 1"><path d="M44.75,391.71h-22L19.74,402H0l23.52-62.57H44.61L68.12,402H47.87Zm-4-13.53-6.9-22.49L27,378.18Z"></path><polygon points="89.31 339.47 108.64 339.47 108.64 386.63 138.82 386.63 138.82 402.04 89.31 402.04 89.31 339.47"></polygon><polygon points="162.65 339.47 181.98 339.47 181.98 386.63 212.16 386.63 212.16 402.04 162.65 402.04 162.65 339.47"></polygon><path d="M236,339.47h36.2q9,0,13.89,4.48a14.52,14.52,0,0,1,4.85,11.1,14,14,0,0,1-3.46,9.52,15.43,15.43,0,0,1-6.75,4.18q6.75,1.62,9.93,5.57a15.31,15.31,0,0,1,3.18,9.92,17.1,17.1,0,0,1-2.26,8.75,16.68,16.68,0,0,1-6.19,6.15,20.53,20.53,0,0,1-7.34,2.05,84.33,84.33,0,0,1-8.67.85H236ZM255.54,364H264q4.51,0,6.29-1.56A5.65,5.65,0,0,0,272,358a5.37,5.37,0,0,0-1.77-4.27c-1.18-1-3.24-1.54-6.16-1.54h-8.54Zm0,24.59h9.86c3.33,0,5.67-.59,7-1.77a6,6,0,0,0,2.05-4.76,5.51,5.51,0,0,0-2-4.46q-2-1.69-7.1-1.69h-9.82Z"></path><polygon points="312.7 339.47 334.18 339.47 346.79 360.58 359.42 339.47 380.78 339.47 356.45 375.84 356.45 402.04 337.08 402.04 337.08 375.84 312.7 339.47"></polygon><path d="M402.09,339.47h36.2q9,0,13.89,4.48a14.52,14.52,0,0,1,4.85,11.1,14,14,0,0,1-3.46,9.52,15.37,15.37,0,0,1-6.75,4.18q6.75,1.62,9.93,5.57a15.31,15.31,0,0,1,3.18,9.92,17,17,0,0,1-2.26,8.75,16.68,16.68,0,0,1-6.19,6.15,20.46,20.46,0,0,1-7.34,2.05,84.07,84.07,0,0,1-8.67.85H402.09ZM421.6,364H430c3,0,5.11-.52,6.3-1.56a5.65,5.65,0,0,0,1.77-4.5,5.37,5.37,0,0,0-1.77-4.27c-1.19-1-3.24-1.54-6.17-1.54H421.6Zm0,24.59h9.86q5,0,7-1.77a6,6,0,0,0,2.05-4.76,5.48,5.48,0,0,0-2-4.46q-2-1.69-7.1-1.69H421.6Z"></path><path d="M211.8,89.61c4.65-2.11,9.17-4.45,13.9-6.26,14.22-5.43,29-7,44.14-6.09a96.58,96.58,0,0,1,46.45,14.67C335,103.67,347,120.4,353.93,141.17a112.36,112.36,0,0,1,5,45.13c-2.73,33.16-16.91,59.81-45.82,77.42-16.57,10.1-35,13.65-54.22,13.08-20.18-.6-38.77-6.38-55.34-18.09-13.87-9.79-23.63-22.86-30.14-38.44-6.76-16.21-8.77-33.17-8.45-50.61q.87-48.63,1.19-97.28c0-3.63,1.19-4.57,4.55-4.38,5,.27,10.1.17,15.14.25,15.24.22,22.86,6.45,26,21.36m50,136.86c6.64-1.23,13.63-1.53,19.85-3.88,16.46-6.2,27.85-17.61,31.4-35.39,2.81-14.06.5-27.29-8.38-38.92-14.48-19-37-23.81-58.59-18-17.47,4.68-29.51,16.13-34.13,34.18-3.62,14.12-1.91,27.66,6.48,39.7,10.39,14.89,25.25,21.5,43.37,22.35"></path><path d="M102.15,0c16.29-.68,34.45,11.27,40.64,26.18A55.21,55.21,0,0,1,147,48.6q-.88,59.22-1.54,118.46c0,1.49,0,3-.06,5.36-4.73-.77-9.14-1-13.24-2.24C113.66,164.6,100.4,146.47,100.6,127c.42-41.38,1-82.76,1.52-124.14,0-.87,0-1.74,0-2.87"></path></g></g></svg> 